<svg width="22" height="25" viewBox="0 0 22 25" fill="none" xmlns="http://www.w3.org/2000/svg">
<path fill-rule="evenodd" clip-rule="evenodd" d="M10.4129 0.156893C10.7753 -0.0522976 11.2247 -0.0522976 11.5871 0.156893L21.4292 5.83871C21.7828 6.04288 22 6.41549 22 6.81818V18.1818C22 18.5845 21.7828 18.9571 21.4292 19.1613L11.5871 24.8431C11.2247 25.0523 10.7753 25.0523 10.4129 24.8431L0.570819 19.1613C0.217153 18.9571 0 18.5845 0 18.1818V6.81818C0 6.41549 0.217153 6.04288 0.570819 5.83871L10.4129 0.156893ZM2.31579 7.46812V17.5319L11 22.5452L19.6842 17.5319V7.46812L11 2.45475L2.31579 7.46812Z" fill="#E0E0E0"/>
<path fill-rule="evenodd" clip-rule="evenodd" d="M14.9 8C15.5075 8 16 8.50368 16 9.125V15.875C16 16.4963 15.5075 17 14.9 17C14.2925 17 13.8 16.4963 13.8 15.875V9.125C13.8 8.50368 14.2925 8 14.9 8ZM10.5 10.25C11.1075 10.25 11.6 10.7537 11.6 11.375V15.875C11.6 16.4963 11.1075 17 10.5 17C9.89249 17 9.4 16.4963 9.4 15.875V11.375C9.4 10.7537 9.89249 10.25 10.5 10.25ZM6.1 12.5C6.70751 12.5 7.2 13.0037 7.2 13.625V15.875C7.2 16.4963 6.70751 17 6.1 17C5.49249 17 5 16.4963 5 15.875V13.625C5 13.0037 5.49249 12.5 6.1 12.5Z" fill="#E0E0E0"/>
</svg>
